<?xml version="1.0" encoding="utf-8"?>
<!-- Generator: Adobe Illustrator 26.4.1, SVG Export Plug-In . SVG Version: 6.00 Build 0)  -->
<svg version="1.1"
	 id="svg8" xmlns:rdf="http://www.w3.org/1999/02/22-rdf-syntax-ns#" xmlns:dc="http://purl.org/dc/elements/1.1/" xmlns:svg="http://www.w3.org/2000/svg" xmlns:cc="http://creativecommons.org/ns#" xmlns:sodipodi="http://sodipodi.sourceforge.net/DTD/sodipodi-0.dtd" xmlns:inkscape="http://www.inkscape.org/namespaces/inkscape"
	 xmlns="http://www.w3.org/2000/svg" xmlns:xlink="http://www.w3.org/1999/xlink" x="0px" y="0px" viewBox="0 0 595.3 841.9"
	 style="enable-background:new 0 0 595.3 841.9;" xml:space="preserve">
<style type="text/css">
	.st0{fill:none;stroke:#000000;stroke-width:1.0407;stroke-miterlimit:11.3386;}
	.st1{fill:none;stroke:#000000;stroke-width:1.0772;stroke-miterlimit:11.3386;}
	.st2{fill:none;stroke:#000000;stroke-width:1.4172;stroke-miterlimit:11.3386;}
	.st3{stroke:#000000;stroke-width:0.665;}
	.st4{stroke:#000000;stroke-width:0.2918;}
	.st5{fill:none;stroke:#000000;stroke-width:1.0892;stroke-miterlimit:11.3386;}
	.st6{fill:none;stroke:#000000;stroke-width:1.0825;stroke-miterlimit:11.3386;}
	.st7{fill:none;stroke:#000000;stroke-width:1.0943;stroke-miterlimit:11.3386;}
	.st8{fill:none;stroke:#000000;stroke-width:1.0837;stroke-miterlimit:11.3386;}
	.st9{fill:none;stroke:#000000;stroke-width:1.2772;stroke-miterlimit:11.3386;}
	.st10{fill:none;stroke:#000000;stroke-width:0.9726;stroke-miterlimit:11.3386;}
	.st11{font-family:'ArialMT';}
	.st12{font-size:12px;}
	.st13{fill:none;stroke:#000000;stroke-width:1.1594;stroke-miterlimit:11.3386;}
	.st14{fill:none;stroke:#000000;stroke-width:1.1197;stroke-miterlimit:11.3386;}
	.st15{fill:none;stroke:#000000;stroke-width:1.1138;stroke-miterlimit:11.3386;}
	.st16{fill:#FFFFFF;stroke:#FFFFFF;stroke-width:1.3782;stroke-miterlimit:11.3386;}
	.st17{fill:none;stroke:#000000;stroke-width:0.7512;stroke-miterlimit:11.3386;}
	.st18{stroke:#000000;stroke-width:0.4292;stroke-miterlimit:11.3386;}
	.st19{fill:none;stroke:#000000;stroke-width:0.7917;stroke-miterlimit:11.3386;}
	.st20{stroke:#000000;stroke-width:1.1197;stroke-miterlimit:11.3386;}
	.st21{fill:none;stroke:#000000;stroke-width:0.75;stroke-miterlimit:11.3386;}
	.st22{fill:none;stroke:#000000;stroke-width:1.1281;stroke-miterlimit:11.3386;}
	.st23{fill:#FFFFFF;stroke:#FFFFFF;stroke-width:0.5073;stroke-miterlimit:11.3386;}
	.st24{fill:#FFFFFF;stroke:#FFFFFF;stroke-width:0.6123;stroke-miterlimit:11.3386;}
	.st25{fill:none;stroke:#000000;stroke-width:0.7499;stroke-miterlimit:11.3386;}
	.st26{fill:none;stroke:#000000;stroke-width:1.2592;stroke-miterlimit:11.3386;}
	.st27{fill:#FFFFFF;stroke:#FFFFFF;stroke-width:0.583;stroke-miterlimit:11.3386;}
	.st28{stroke:#000000;stroke-width:0.38;}
	.st29{fill:none;stroke:#000000;stroke-width:0.946;stroke-miterlimit:11.3386;}
	.st30{fill:none;stroke:#000000;stroke-width:0.9805;stroke-miterlimit:11.3386;}
	.st31{font-size:16px;}
	.st32{font-size:14px;}
</style>
<sodipodi:namedview  bordercolor="#666666" borderopacity="1.0" id="base" inkscape:current-layer="layer1" inkscape:cx="416.54115" inkscape:cy="592.61209" inkscape:document-rotation="0" inkscape:document-units="mm" inkscape:pageopacity="0.0" inkscape:pageshadow="2" inkscape:window-height="1001" inkscape:window-maximized="1" inkscape:window-width="1920" inkscape:window-x="-9" inkscape:window-y="-9" inkscape:zoom="0.75636745" pagecolor="#ffffff" showgrid="false">
	</sodipodi:namedview>
<g>
	<g id="g869" transform="matrix(0.36044458,0,0,0.36750334,5.4477582,182.77897)">
		<g id="g863">
			<path id="path861" d="M173.1,937.4L173.1,937.4l-1.1,0l-1,0c-9.6,0-57.9-1-72.2-21.3c-1.3-1.5-5.1-7.9,0.5-25.7
				c2.6-8.3,11.1-30.2,20-53.4c10.3-26.7,21.9-56.8,24.1-64.9V740c-0.2-1-1.2-4.4-2.8-6.7c-0.9-1.3-2.9-4.1-1.6-6.5
				c0.7-1.4,2.2-2.2,4.3-2.2h58.3c2.1,0,3.6,0.7,4.3,2.2c1.3,2.4-0.7,5.2-1.6,6.5c-1.6,2.3-2.5,5.7-2.8,6.7v32.1
				c2.1,8.1,13.8,38.3,24.1,65c8.9,23.2,17.4,45.1,20,53.3c5.6,17.8,1.8,24.2,0.5,25.7C231.6,936.4,182.8,937.4,173.1,937.4z
				 M172,931.8l1.1,0l0,0c5.6,0,55.5-0.5,68.3-19l0.3-0.4h0c0,0,3.3-4.6-1.6-20.2c-2.6-8.1-11-29.9-19.9-53
				c-11-28.5-22.4-58-24.4-66l-0.1-0.7l0.1-33.4c0-0.2,1.2-5.1,3.6-8.7h-54.1c2.4,3.6,3.5,8.5,3.6,8.7l0.1,0.6l-0.1,33.5
				c-2,7.9-13.4,37.4-24.3,65.9c-8.9,23.1-17.3,44.9-19.9,53.1c-5,15.7-1.6,20.3-1.5,20.4l0.2,0.3c12.9,18.5,62.1,19,67.7,19
				L172,931.8z"/>
		</g>
		<g id="g867">
			<path id="path865" d="M213.5,842.1c-3.9-0.5-8.1-1.1-12.7-1.9c-24.4-4.2-15.2,0-28.5,6.3s-15.8,5.1-34.8-2.5
				c-2.1-0.8-4.2-1.5-6.3-2c-8.4,21.9-17.2,44.5-19.6,52.3c-2.9,9.2-2.4,13.4-2.2,14.4c5.5,7.6,27,15.7,61.6,15.7c0.6,0,0.9,0,0.9,0
				c0,0,1.3,0,1.3,0c35,0,56.7-8.1,62.2-15.7c0.2-1,0.7-5.2-2.2-14.4C230.6,886.5,222,864,213.5,842.1z"/>
		</g>
	</g>
	<g id="g892" transform="matrix(0.36044458,0,0,0.36750334,27.877822,182.77897)">
		<g id="g886">
			<path id="path884" d="M287.3,937.4L287.3,937.4l-1.1,0l-1,0c-9.6,0-57.9-1-72.2-21.3c-1.3-1.5-5.1-7.9,0.5-25.7
				c2.6-8.3,11.1-30.2,20-53.4c10.3-26.7,21.9-56.8,24.1-64.9V740c-0.2-1-1.2-4.4-2.8-6.7c-0.9-1.3-2.9-4.1-1.6-6.5
				c0.7-1.4,2.2-2.2,4.3-2.2h58.3c2.1,0,3.6,0.7,4.3,2.2c1.3,2.4-0.7,5.2-1.6,6.5c-1.6,2.3-2.5,5.7-2.8,6.7v32.1
				c2.1,8.1,13.8,38.3,24.1,65c8.9,23.2,17.4,45.1,20,53.3c5.6,17.8,1.8,24.2,0.5,25.7C345.8,936.4,297,937.4,287.3,937.4z
				 M286.1,931.8l1.1,0l0,0c5.6,0,55.5-0.5,68.3-19l0.3-0.4h0c0,0,3.3-4.6-1.6-20.2c-2.6-8.1-11-29.9-19.9-53
				c-11-28.5-22.4-58-24.4-66l-0.1-0.7l0.1-33.4c0-0.2,1.2-5.1,3.6-8.7h-54.1c2.4,3.6,3.5,8.5,3.6,8.7l0.1,0.6l-0.1,33.5
				c-2,7.9-13.4,37.4-24.3,65.9c-8.9,23.1-17.3,44.9-19.9,53.1c-5,15.7-1.6,20.3-1.5,20.4l0.2,0.3c12.9,18.5,62.1,19,67.7,19
				L286.1,931.8z"/>
		</g>
		<g id="g890">
			<path id="path888" d="M327.7,842.1c-3.9-0.5-8.1-1.1-12.7-1.9c-24.4-4.2-15.2,0-28.5,6.3s-15.8,5.1-34.8-2.5
				c-2.1-0.8-4.2-1.5-6.3-2c-8.4,21.9-17.2,44.5-19.6,52.3c-2.9,9.2-2.4,13.4-2.2,14.4c5.5,7.6,27,15.7,61.6,15.7c0.6,0,0.9,0,0.9,0
				c0,0,1.3,0,1.3,0c35,0,56.7-8.1,62.2-15.7c0.2-1,0.7-5.2-2.2-14.4C344.8,886.5,336.1,864,327.7,842.1z"/>
		</g>
	</g>
	<g id="g902" transform="matrix(0.36044458,0,0,0.36750334,50.167227,182.77897)">
		<g id="g896">
			<path id="path894" d="M400.7,937.4L400.7,937.4l-1.1,0l-1,0c-9.6,0-57.9-1-72.2-21.3c-1.3-1.5-5.1-7.9,0.5-25.7
				c2.6-8.3,11.1-30.2,20-53.4c10.3-26.7,21.9-56.8,24.1-64.9V740c-0.2-1-1.2-4.4-2.8-6.7c-0.9-1.3-2.9-4.1-1.6-6.5
				c0.7-1.4,2.2-2.2,4.3-2.2h58.3c2.1,0,3.6,0.7,4.3,2.2c1.3,2.4-0.7,5.2-1.6,6.5c-1.6,2.3-2.5,5.7-2.8,6.7v32.1
				c2.1,8.1,13.8,38.3,24.1,65c8.9,23.2,17.4,45.1,20,53.3c5.6,17.8,1.8,24.2,0.5,25.7C459.3,936.4,410.4,937.4,400.7,937.4z
				 M399.6,931.8l1.1,0l0,0c5.6,0,55.5-0.5,68.3-19l0.3-0.4h0c0,0,3.3-4.6-1.6-20.2c-2.6-8.1-11-29.9-19.9-53
				c-11-28.5-22.4-58-24.4-66l-0.1-0.7l0.1-33.4c0-0.2,1.2-5.1,3.6-8.7h-54.1c2.4,3.6,3.5,8.5,3.6,8.7l0.1,0.6l-0.1,33.5
				c-2,7.9-13.4,37.4-24.3,65.9c-8.9,23.1-17.3,44.9-19.9,53.1c-5,15.7-1.6,20.3-1.5,20.4l0.2,0.3c12.9,18.5,62.1,19,67.7,19
				L399.6,931.8z"/>
		</g>
		<g id="g900">
			<path id="path898" d="M441.1,842.1c-3.9-0.5-8.1-1.1-12.7-1.9c-24.4-4.2-15.2,0-28.5,6.3s-15.8,5.1-34.8-2.5
				c-2.1-0.8-4.2-1.5-6.3-2c-8.4,21.9-17.2,44.5-19.6,52.3c-2.9,9.2-2.4,13.4-2.2,14.4c5.5,7.6,27,15.7,61.6,15.7c0.6,0,0.9,0,0.9,0
				c0,0,1.3,0,1.3,0c35,0,56.7-8.1,62.2-15.7c0.2-1,0.7-5.2-2.2-14.4C458.3,886.5,449.6,864,441.1,842.1z"/>
		</g>
	</g>
	<g id="g912" transform="matrix(0.36044458,0,0,0.36750334,72.696431,182.77897)">
		<g id="g906">
			<path id="path904" d="M515.4,937.4L515.4,937.4l-1.1,0l-1,0c-9.6,0-57.9-1-72.2-21.3c-1.3-1.5-5.1-7.9,0.5-25.7
				c2.6-8.3,11.1-30.2,20-53.4c10.3-26.7,21.9-56.8,24.1-64.9V740c-0.2-1-1.2-4.4-2.8-6.7c-0.9-1.3-2.9-4.1-1.6-6.5
				c0.7-1.4,2.2-2.2,4.3-2.2h58.3c2.1,0,3.6,0.7,4.3,2.2c1.3,2.4-0.7,5.2-1.6,6.5c-1.6,2.3-2.5,5.7-2.8,6.7v32.1
				c2.1,8.1,13.8,38.3,24.1,65c8.9,23.2,17.4,45.1,20,53.3c5.6,17.8,1.8,24.2,0.5,25.7C573.9,936.4,525.1,937.4,515.4,937.4z
				 M514.3,931.8l1.1,0l0,0c5.6,0,55.5-0.5,68.3-19l0.3-0.4h0c0,0,3.3-4.6-1.6-20.2c-2.6-8.1-11-29.9-19.9-53
				c-11-28.5-22.4-58-24.4-66l-0.1-0.7l0.1-33.4c0-0.2,1.2-5.1,3.6-8.7h-54.1c2.4,3.6,3.5,8.5,3.6,8.7l0.1,0.6l-0.1,33.5
				c-2,7.9-13.4,37.4-24.3,65.9c-8.9,23.1-17.3,44.9-19.9,53.1c-5,15.7-1.6,20.3-1.5,20.4l0.2,0.3c12.9,18.5,62.1,19,67.7,19
				L514.3,931.8z"/>
		</g>
		<g id="g910">
			<path id="path908" d="M555.8,842.1c-3.9-0.5-8.1-1.1-12.7-1.9c-24.4-4.2-15.2,0-28.5,6.3c-13.3,6.3-15.8,5.1-34.8-2.5
				c-2.1-0.8-4.2-1.5-6.3-2c-8.4,21.9-17.2,44.5-19.6,52.3c-2.9,9.2-2.4,13.4-2.2,14.4c5.5,7.6,27,15.7,61.6,15.7c0.6,0,0.9,0,0.9,0
				c0,0,1.3,0,1.3,0c35,0,56.7-8.1,62.2-15.7c0.2-1,0.7-5.2-2.2-14.4C572.9,886.5,564.3,864,555.8,842.1z"/>
		</g>
	</g>
	<path id="path914" class="st0" d="M66.1,449.7L66,257.9l0,0"/>
	<path id="path916" class="st1" d="M130.6,449.9l0.7-68.7l0,0"/>
	<path id="path918" class="st2" d="M193.6,451l0.7-51.6l0,0"/>
	<g id="g950" transform="matrix(0.42491994,0,0,0.45565198,-28.24377,84.330181)">
		
			<path id="path922" inkscape:flatsided="false" inkscape:randomized="0" inkscape:rounded="0" inkscape:transform-center-x="0.0012855256" inkscape:transform-center-y="-1.0670075" sodipodi:arg1="0.49394137" sodipodi:arg2="1.5411389" sodipodi:cx="120.95593" sodipodi:cy="159.73128" sodipodi:r1="4.272471" sodipodi:r2="2.1362357" sodipodi:sides="3" sodipodi:type="star" class="st3" d="
			M233.8,618.4l-10.5,0l-10.5,0l5.2-9.1l5.2-9.1l5.2,9.1L233.8,618.4z"/>
		<ellipse id="path924" class="st4" cx="223.7" cy="597.8" rx="3.4" ry="3.7"/>
		
			<path id="path926" inkscape:flatsided="false" inkscape:randomized="0" inkscape:rounded="0" inkscape:transform-center-x="1.057997" inkscape:transform-center-y="0.011675714" sodipodi:arg1="0.49394137" sodipodi:arg2="1.5411389" sodipodi:cx="132.24129" sodipodi:cy="153.36517" sodipodi:r1="4.272471" sodipodi:r2="2.1362357" sodipodi:sides="3" sodipodi:type="star" class="st3" d="
			M243.5,588l-0.1,10.5l-0.1,10.5l-9.1-5.3l-9.1-5.3l9.1-5.2L243.5,588z"/>
		
			<path id="path928" inkscape:flatsided="false" inkscape:randomized="0" inkscape:rounded="0" inkscape:transform-center-x="0.0011963499" inkscape:transform-center-y="1.1208805" sodipodi:arg1="0.49394137" sodipodi:arg2="1.5411389" sodipodi:cx="120.95593" sodipodi:cy="159.73128" sodipodi:r1="4.272471" sodipodi:r2="2.1362357" sodipodi:sides="3" sodipodi:type="star" class="st3" d="
			M233.1,577.3l-9.8,0l-9.8,0l4.9,9.5l4.9,9.5l4.9-9.5L233.1,577.3z"/>
	</g>
	<g id="g960" transform="matrix(0.42491994,0,0,0.45565198,-5.4736197,91.924297)">
		
			<path id="path952" inkscape:flatsided="false" inkscape:randomized="0" inkscape:rounded="0" inkscape:transform-center-x="0.0012855256" inkscape:transform-center-y="-1.0670075" sodipodi:arg1="0.49394137" sodipodi:arg2="1.5411389" sodipodi:cx="120.95593" sodipodi:cy="159.73128" sodipodi:r1="4.272471" sodipodi:r2="2.1362357" sodipodi:sides="3" sodipodi:type="star" class="st3" d="
			M332.2,649l-10.5,0l-10.5,0l5.2-9.1l5.2-9.1l5.2,9.1L332.2,649z"/>
		<ellipse id="circle954" class="st4" cx="322" cy="628.4" rx="3.4" ry="3.7"/>
		
			<path id="path956" inkscape:flatsided="false" inkscape:randomized="0" inkscape:rounded="0" inkscape:transform-center-x="1.057997" inkscape:transform-center-y="0.011675714" sodipodi:arg1="0.49394137" sodipodi:arg2="1.5411389" sodipodi:cx="132.24129" sodipodi:cy="153.36517" sodipodi:r1="4.272471" sodipodi:r2="2.1362357" sodipodi:sides="3" sodipodi:type="star" class="st3" d="
			M341.8,618.5l-0.1,10.5l-0.1,10.5l-9.1-5.3l-9.1-5.3l9.1-5.2L341.8,618.5z"/>
		
			<path id="path958" inkscape:flatsided="false" inkscape:randomized="0" inkscape:rounded="0" inkscape:transform-center-x="0.0011963499" inkscape:transform-center-y="1.1208805" sodipodi:arg1="0.49394137" sodipodi:arg2="1.5411389" sodipodi:cx="120.95593" sodipodi:cy="159.73128" sodipodi:r1="4.272471" sodipodi:r2="2.1362357" sodipodi:sides="3" sodipodi:type="star" class="st3" d="
			M331.4,607.9l-9.8,0l-9.8,0l4.9,9.5l4.9,9.5l4.9-9.5L331.4,607.9z"/>
	</g>
	<path id="path982" sodipodi:nodetypes="ccc" class="st5" d="M68.7,356.5l279.2,0.1l0.4,21"/>
	<path id="path986" class="st6" d="M132.5,379.1l207.9,0.3l0,0"/>
	<path id="path988" class="st7" d="M194.3,401.4l146.6,0.2l0,0"/>
	<path id="path994" class="st8" d="M256.8,427.3l83.9,0.3"/>
	<g id="g1004" transform="matrix(-0.42511895,0,0,0.45981497,174.15873,91.690299)">
		
			<path id="path996" inkscape:flatsided="false" inkscape:randomized="0" inkscape:rounded="0" inkscape:transform-center-x="0.0012855256" inkscape:transform-center-y="-1.0670075" sodipodi:arg1="0.49394137" sodipodi:arg2="1.5411389" sodipodi:cx="120.95593" sodipodi:cy="159.73128" sodipodi:r1="4.272471" sodipodi:r2="2.1362357" sodipodi:sides="3" sodipodi:type="star" class="st3" d="
			M-400.7,646.3l-10.5,0l-10.5,0l5.2-9.1l5.2-9.1l5.2,9.1L-400.7,646.3z"/>
		<ellipse id="circle998" class="st4" cx="-410.9" cy="625.8" rx="3.4" ry="3.7"/>
		
			<path id="path1000" inkscape:flatsided="false" inkscape:randomized="0" inkscape:rounded="0" inkscape:transform-center-x="1.057997" inkscape:transform-center-y="0.011675714" sodipodi:arg1="0.49394137" sodipodi:arg2="1.5411389" sodipodi:cx="132.24129" sodipodi:cy="153.36517" sodipodi:r1="4.272471" sodipodi:r2="2.1362357" sodipodi:sides="3" sodipodi:type="star" class="st3" d="
			M-391.1,615.9l-0.1,10.5l-0.1,10.5l-9.1-5.3l-9.1-5.3l9.1-5.2L-391.1,615.9z"/>
		
			<path id="path1002" inkscape:flatsided="false" inkscape:randomized="0" inkscape:rounded="0" inkscape:transform-center-x="0.0011963499" inkscape:transform-center-y="1.1208805" sodipodi:arg1="0.49394137" sodipodi:arg2="1.5411389" sodipodi:cx="120.95593" sodipodi:cy="159.73128" sodipodi:r1="4.272471" sodipodi:r2="2.1362357" sodipodi:sides="3" sodipodi:type="star" class="st3" d="
			M-401.4,605.2l-9.8,0l-9.8,0l4.9,9.5l4.9,9.5l4.9-9.5L-401.4,605.2z"/>
	</g>
	<g id="g1014" transform="matrix(0.42491994,0,0,0.45565198,16.77938,100.14212)">
		
			<path id="path1006" inkscape:flatsided="false" inkscape:randomized="0" inkscape:rounded="0" inkscape:transform-center-x="0.0012855256" inkscape:transform-center-y="-1.0670075" sodipodi:arg1="0.49394137" sodipodi:arg2="1.5411389" sodipodi:cx="120.95593" sodipodi:cy="159.73128" sodipodi:r1="4.272471" sodipodi:r2="2.1362357" sodipodi:sides="3" sodipodi:type="star" class="st3" d="
			M428.2,682.1l-10.5,0l-10.5,0l5.2-9.1l5.2-9.1l5.2,9.1L428.2,682.1z"/>
		<ellipse id="circle1008" class="st4" cx="418.1" cy="661.5" rx="3.4" ry="3.7"/>
		
			<path id="path1010" inkscape:flatsided="false" inkscape:randomized="0" inkscape:rounded="0" inkscape:transform-center-x="1.057997" inkscape:transform-center-y="0.011675714" sodipodi:arg1="0.49394137" sodipodi:arg2="1.5411389" sodipodi:cx="132.24129" sodipodi:cy="153.36517" sodipodi:r1="4.272471" sodipodi:r2="2.1362357" sodipodi:sides="3" sodipodi:type="star" class="st3" d="
			M437.9,651.6l-0.1,10.5l-0.1,10.5l-9.1-5.3l-9.1-5.3l9.1-5.2L437.9,651.6z"/>
		
			<path id="path1012" inkscape:flatsided="false" inkscape:randomized="0" inkscape:rounded="0" inkscape:transform-center-x="0.0011963499" inkscape:transform-center-y="1.1208805" sodipodi:arg1="0.49394137" sodipodi:arg2="1.5411389" sodipodi:cx="120.95593" sodipodi:cy="159.73128" sodipodi:r1="4.272471" sodipodi:r2="2.1362357" sodipodi:sides="3" sodipodi:type="star" class="st3" d="
			M427.5,641l-9.8,0l-9.8,0l4.9,9.5l4.9,9.5l4.9-9.5L427.5,641z"/>
	</g>
	<g id="g1024" transform="matrix(0.42491994,0,0,0.45565198,39.516987,109.19568)">
		
			<path id="path1016" inkscape:flatsided="false" inkscape:randomized="0" inkscape:rounded="0" inkscape:transform-center-x="0.0012855256" inkscape:transform-center-y="-1.0670075" sodipodi:arg1="0.49394137" sodipodi:arg2="1.5411389" sodipodi:cx="120.95593" sodipodi:cy="159.73128" sodipodi:r1="4.272471" sodipodi:r2="2.1362357" sodipodi:sides="3" sodipodi:type="star" class="st3" d="
			M526.4,718.5l-10.5,0l-10.5,0l5.2-9.1l5.2-9.1l5.2,9.1L526.4,718.5z"/>
		<ellipse id="circle1018" class="st4" cx="516.2" cy="698" rx="3.4" ry="3.7"/>
		
			<path id="path1020" inkscape:flatsided="false" inkscape:randomized="0" inkscape:rounded="0" inkscape:transform-center-x="1.057997" inkscape:transform-center-y="0.011675714" sodipodi:arg1="0.49394137" sodipodi:arg2="1.5411389" sodipodi:cx="132.24129" sodipodi:cy="153.36517" sodipodi:r1="4.272471" sodipodi:r2="2.1362357" sodipodi:sides="3" sodipodi:type="star" class="st3" d="
			M536,688.1l-0.1,10.5l-0.1,10.5l-9.1-5.3l-9.1-5.3l9.1-5.2L536,688.1z"/>
		
			<path id="path1022" inkscape:flatsided="false" inkscape:randomized="0" inkscape:rounded="0" inkscape:transform-center-x="0.0011963499" inkscape:transform-center-y="1.1208805" sodipodi:arg1="0.49394137" sodipodi:arg2="1.5411389" sodipodi:cx="120.95593" sodipodi:cy="159.73128" sodipodi:r1="4.272471" sodipodi:r2="2.1362357" sodipodi:sides="3" sodipodi:type="star" class="st3" d="
			M525.7,677.4l-9.8,0l-9.8,0l4.9,9.5l4.9,9.5l4.9-9.5L525.7,677.4z"/>
	</g>
	<g id="g1044" transform="matrix(-0.42511895,0,0,0.45981497,173.97695,99.74798)">
		
			<path id="path1036" inkscape:flatsided="false" inkscape:randomized="0" inkscape:rounded="0" inkscape:transform-center-x="0.0012855256" inkscape:transform-center-y="-1.0670075" sodipodi:arg1="0.49394137" sodipodi:arg2="1.5411389" sodipodi:cx="120.95593" sodipodi:cy="159.73128" sodipodi:r1="4.272471" sodipodi:r2="2.1362357" sodipodi:sides="3" sodipodi:type="star" class="st3" d="
			M-399.9,678.5l-10.5,0l-10.5,0l5.2-9.1l5.2-9.1l5.2,9.1L-399.9,678.5z"/>
		<ellipse id="circle1038" class="st4" cx="-410.1" cy="657.9" rx="3.4" ry="3.7"/>
		
			<path id="path1040" inkscape:flatsided="false" inkscape:randomized="0" inkscape:rounded="0" inkscape:transform-center-x="1.057997" inkscape:transform-center-y="0.011675714" sodipodi:arg1="0.49394137" sodipodi:arg2="1.5411389" sodipodi:cx="132.24129" sodipodi:cy="153.36517" sodipodi:r1="4.272471" sodipodi:r2="2.1362357" sodipodi:sides="3" sodipodi:type="star" class="st3" d="
			M-390.3,648l-0.1,10.5l-0.1,10.5l-9.1-5.3l-9.1-5.3l9.1-5.2L-390.3,648z"/>
		
			<path id="path1042" inkscape:flatsided="false" inkscape:randomized="0" inkscape:rounded="0" inkscape:transform-center-x="0.0011963499" inkscape:transform-center-y="1.1208805" sodipodi:arg1="0.49394137" sodipodi:arg2="1.5411389" sodipodi:cx="120.95593" sodipodi:cy="159.73128" sodipodi:r1="4.272471" sodipodi:r2="2.1362357" sodipodi:sides="3" sodipodi:type="star" class="st3" d="
			M-400.6,637.4l-9.8,0l-9.8,0l4.9,9.5l4.9,9.5l4.9-9.5L-400.6,637.4z"/>
	</g>
	<g id="g1054" transform="matrix(-0.452006,0,0,0.47298317,177.33074,106.48554)">
		
			<path id="path1046" inkscape:flatsided="false" inkscape:randomized="0" inkscape:rounded="0" inkscape:transform-center-x="0.0012855256" inkscape:transform-center-y="-1.0670075" sodipodi:arg1="0.49394137" sodipodi:arg2="1.5411389" sodipodi:cx="120.95593" sodipodi:cy="159.73128" sodipodi:r1="4.272471" sodipodi:r2="2.1362357" sodipodi:sides="3" sodipodi:type="star" class="st3" d="
			M-368.7,698.5l-10.5,0l-10.5,0l5.2-9.1l5.2-9.1l5.2,9.1L-368.7,698.5z"/>
		<ellipse id="circle1048" class="st4" cx="-378.9" cy="677.9" rx="3.7" ry="3.8"/>
		
			<path id="path1050" inkscape:flatsided="false" inkscape:randomized="0" inkscape:rounded="0" inkscape:transform-center-x="1.057997" inkscape:transform-center-y="0.011675714" sodipodi:arg1="0.49394137" sodipodi:arg2="1.5411389" sodipodi:cx="132.24129" sodipodi:cy="153.36517" sodipodi:r1="4.272471" sodipodi:r2="2.1362357" sodipodi:sides="3" sodipodi:type="star" class="st3" d="
			M-359.1,668l-0.1,10.5l-0.1,10.5l-9.1-5.3l-9.1-5.3l9.1-5.2L-359.1,668z"/>
		
			<path id="path1052" inkscape:flatsided="false" inkscape:randomized="0" inkscape:rounded="0" inkscape:transform-center-x="0.0011963499" inkscape:transform-center-y="1.1208805" sodipodi:arg1="0.49394137" sodipodi:arg2="1.5411389" sodipodi:cx="120.95593" sodipodi:cy="159.73128" sodipodi:r1="4.272471" sodipodi:r2="2.1362357" sodipodi:sides="3" sodipodi:type="star" class="st3" d="
			M-369.4,657.4l-9.8,0l-9.8,0l4.9,9.5l4.9,9.5l4.9-9.5L-369.4,657.4z"/>
	</g>
	<path id="path1056" class="st9" d="M348.5,521.9l-0.1-120.3l0,0"/>
	<path id="path1058" class="st10" d="M348.4,401.6l-0.1-24l0,0"/>
	<text transform="matrix(1 0 0 1 365.2363 514.138)" class="st11 st12">Air</text>
	<path id="path1072" class="st13" d="M131.2,379.4l0-20.1l0,0"/>
	<path id="path1074" class="st13" d="M66.7,357.8l0-20.1l0,0"/>
	<path id="path1076" class="st13" d="M194.3,402.6l0-20.1l0,0"/>
	<path id="path1078" class="st14" d="M258.7,449.8l0-42.6l0,0"/>
	<path id="path1080" class="st15" d="M258.8,400.2l0-18.5l0,0"/>
	<path id="path1082" class="st15" d="M194.7,377l0-18.5l0,0"/>
	<path id="path1084" class="st15" d="M258.9,377.4l0-18.5l0,0"/>
	<g id="g1094" transform="matrix(0.42491994,0,0,0.45565198,-28.213355,64.785538)">
		
			<path id="path1086" inkscape:flatsided="false" inkscape:randomized="0" inkscape:rounded="0" inkscape:transform-center-x="0.0012855256" inkscape:transform-center-y="-1.0670075" sodipodi:arg1="0.49394137" sodipodi:arg2="1.5411389" sodipodi:cx="120.95593" sodipodi:cy="159.73128" sodipodi:r1="4.272471" sodipodi:r2="2.1362357" sodipodi:sides="3" sodipodi:type="star" class="st3" d="
			M234,539.7l-10.5,0l-10.5,0l5.2-9.1l5.2-9.1l5.2,9.1L234,539.7z"/>
		<ellipse id="circle1088" class="st4" cx="223.8" cy="519.1" rx="3.4" ry="3.7"/>
		
			<path id="path1090" inkscape:flatsided="false" inkscape:randomized="0" inkscape:rounded="0" inkscape:transform-center-x="1.057997" inkscape:transform-center-y="0.011675714" sodipodi:arg1="0.49394137" sodipodi:arg2="1.5411389" sodipodi:cx="132.24129" sodipodi:cy="153.36517" sodipodi:r1="4.272471" sodipodi:r2="2.1362357" sodipodi:sides="3" sodipodi:type="star" class="st3" d="
			M243.6,509.3l-0.1,10.5l-0.1,10.5l-9.1-5.3l-9.1-5.3l9.1-5.2L243.6,509.3z"/>
		
			<path id="path1092" inkscape:flatsided="false" inkscape:randomized="0" inkscape:rounded="0" inkscape:transform-center-x="0.0011963499" inkscape:transform-center-y="1.1208805" sodipodi:arg1="0.49394137" sodipodi:arg2="1.5411389" sodipodi:cx="120.95593" sodipodi:cy="159.73128" sodipodi:r1="4.272471" sodipodi:r2="2.1362357" sodipodi:sides="3" sodipodi:type="star" class="st3" d="
			M233.2,498.6l-9.8,0l-9.8,0l4.9,9.5l4.9,9.5l4.9-9.5L233.2,498.6z"/>
	</g>
	<g id="g1146">
		<rect id="rect1106" x="158.7" y="373.8" class="st16" width="16.6" height="10.4"/>
		<g id="g1137">
			<path id="path1115" class="st17" d="M175.1,370l0,17.1l0,0"/>
			<ellipse id="ellipse1117" class="st18" cx="174.6" cy="371.2" rx="1.2" ry="1.2"/>
			<path id="path1119" class="st19" d="M173.9,372.1l-13.4,12.2l0,0"/>
			
				<path id="path1121" inkscape:flatsided="false" inkscape:randomized="0" inkscape:rounded="0" inkscape:transform-center-x="0.064245797" inkscape:transform-center-y="-0.087532023" sodipodi:arg1="2.8387078" sodipodi:arg2="3.8859053" sodipodi:cx="50.602779" sodipodi:cy="137.00771" sodipodi:r1="0.58691031" sodipodi:r2="0.29013675" sodipodi:sides="3" sodipodi:type="star" class="st20" d="
				M163.3,383.6l-1-1.1l-1-1.1l-0.4,1.4l-0.4,1.4l1.4-0.3L163.3,383.6z"/>
			<path id="path1123" class="st21" d="M159.1,370l0,17.1l0,0"/>
		</g>
	</g>
	<g id="g1162" transform="translate(20.005022,7.7968291)">
		<rect id="rect1148" x="195.4" y="388.1" class="st16" width="16.6" height="10.4"/>
		<g id="g1160">
			<path id="path1150" class="st17" d="M211.8,384.3l0,17.1l0,0"/>
			<ellipse id="ellipse1152" class="st18" cx="211.3" cy="385.5" rx="1.2" ry="1.2"/>
			<path id="path1154" class="st19" d="M210.6,386.4l-13.4,12.2l0,0"/>
			
				<path id="path1156" inkscape:flatsided="false" inkscape:randomized="0" inkscape:rounded="0" inkscape:transform-center-x="0.064245797" inkscape:transform-center-y="-0.087532023" sodipodi:arg1="2.8387078" sodipodi:arg2="3.8859053" sodipodi:cx="50.602779" sodipodi:cy="137.00771" sodipodi:r1="0.58691031" sodipodi:r2="0.29013675" sodipodi:sides="3" sodipodi:type="star" class="st20" d="
				M200,397.9l-1-1.1l-1-1.1l-0.4,1.4l-0.4,1.4l1.4-0.3L200,397.9z"/>
			<path id="path1158" class="st21" d="M195.8,384.3l0,17.1l0,0"/>
		</g>
	</g>
	<g id="g1178" transform="translate(-18.595549,-7.5916494)">
		<rect id="rect1164" x="124.6" y="359.8" class="st16" width="16.6" height="10.4"/>
		<g id="g1176">
			<path id="path1166" class="st17" d="M141,356.1l0,17.1l0,0"/>
			<ellipse id="ellipse1168" class="st18" cx="140.5" cy="357.2" rx="1.2" ry="1.2"/>
			<path id="path1170" class="st19" d="M139.8,358.2l-13.4,12.2l0,0"/>
			
				<path id="path1172" inkscape:flatsided="false" inkscape:randomized="0" inkscape:rounded="0" inkscape:transform-center-x="0.064245797" inkscape:transform-center-y="-0.087532023" sodipodi:arg1="2.8387078" sodipodi:arg2="3.8859053" sodipodi:cx="50.602779" sodipodi:cy="137.00771" sodipodi:r1="0.58691031" sodipodi:r2="0.29013675" sodipodi:sides="3" sodipodi:type="star" class="st20" d="
				M129.2,369.7l-1-1.1l-1-1.1l-0.4,1.4l-0.4,1.4l1.4-0.3L129.2,369.7z"/>
			<path id="path1174" class="st21" d="M124.9,356.1l0,17.1l0,0"/>
		</g>
	</g>
	<g id="g1194" transform="translate(46.678385,16.927326)">
		<rect id="rect1180" x="244.4" y="404.8" class="st16" width="16.6" height="10.4"/>
		<g id="g1192">
			<path id="path1182" class="st17" d="M260.8,401.1l0,17.1l0,0"/>
			<ellipse id="ellipse1184" class="st18" cx="260.2" cy="402.2" rx="1.2" ry="1.2"/>
			<path id="path1186" class="st19" d="M259.5,403.1l-13.4,12.2l0,0"/>
			
				<path id="path1188" inkscape:flatsided="false" inkscape:randomized="0" inkscape:rounded="0" inkscape:transform-center-x="0.064245797" inkscape:transform-center-y="-0.087532023" sodipodi:arg1="2.8387078" sodipodi:arg2="3.8859053" sodipodi:cx="50.602779" sodipodi:cy="137.00771" sodipodi:r1="0.58691031" sodipodi:r2="0.29013675" sodipodi:sides="3" sodipodi:type="star" class="st20" d="
				M249,414.7l-1-1.1l-1-1.1l-0.4,1.4l-0.4,1.4l1.4-0.3L249,414.7z"/>
			<path id="path1190" class="st21" d="M244.7,401.1l0,17.1l0,0"/>
		</g>
	</g>
	<path id="path1196" class="st22" d="M67.6,303.2l63.2,0.4l-0.5,45.2"/>
	<g id="g1208" transform="matrix(0.42491994,0,0,0.45565198,-28.322577,55.535504)">
		
			<path id="path1200" inkscape:flatsided="false" inkscape:randomized="0" inkscape:rounded="0" inkscape:transform-center-x="0.0012855256" inkscape:transform-center-y="-1.0670075" sodipodi:arg1="0.49394137" sodipodi:arg2="1.5411389" sodipodi:cx="120.95593" sodipodi:cy="159.73128" sodipodi:r1="4.272471" sodipodi:r2="2.1362357" sodipodi:sides="3" sodipodi:type="star" class="st3" d="
			M233.5,502.5l-10.5,0l-10.5,0l5.2-9.1l5.2-9.1l5.2,9.1L233.5,502.5z"/>
		<ellipse id="circle1202" class="st4" cx="223.3" cy="481.9" rx="3.4" ry="3.7"/>
		
			<path id="path1204" inkscape:flatsided="false" inkscape:randomized="0" inkscape:rounded="0" inkscape:transform-center-x="1.057997" inkscape:transform-center-y="0.011675714" sodipodi:arg1="0.49394137" sodipodi:arg2="1.5411389" sodipodi:cx="132.24129" sodipodi:cy="153.36517" sodipodi:r1="4.272471" sodipodi:r2="2.1362357" sodipodi:sides="3" sodipodi:type="star" class="st3" d="
			M243.1,472l-0.1,10.5L243,493l-9.1-5.3l-9.1-5.3l9.1-5.2L243.1,472z"/>
		
			<path id="path1206" inkscape:flatsided="false" inkscape:randomized="0" inkscape:rounded="0" inkscape:transform-center-x="0.0011963499" inkscape:transform-center-y="1.1208805" sodipodi:arg1="0.49394137" sodipodi:arg2="1.5411389" sodipodi:cx="120.95593" sodipodi:cy="159.73128" sodipodi:r1="4.272471" sodipodi:r2="2.1362357" sodipodi:sides="3" sodipodi:type="star" class="st3" d="
			M232.8,461.4l-9.8,0l-9.8,0l4.9,9.5l4.9,9.5l4.9-9.5L232.8,461.4z"/>
	</g>
	<g id="g1218" transform="matrix(0.42491994,0,0,0.45565198,-28.322577,46.539665)">
		
			<path id="path1210" inkscape:flatsided="false" inkscape:randomized="0" inkscape:rounded="0" inkscape:transform-center-x="0.0012855256" inkscape:transform-center-y="-1.0670075" sodipodi:arg1="0.49394137" sodipodi:arg2="1.5411389" sodipodi:cx="120.95593" sodipodi:cy="159.73128" sodipodi:r1="4.272471" sodipodi:r2="2.1362357" sodipodi:sides="3" sodipodi:type="star" class="st3" d="
			M233.5,466.2l-10.5,0l-10.5,0l5.2-9.1l5.2-9.1l5.2,9.1L233.5,466.2z"/>
		<ellipse id="circle1212" class="st4" cx="223.3" cy="445.7" rx="3.4" ry="3.7"/>
		
			<path id="path1214" inkscape:flatsided="false" inkscape:randomized="0" inkscape:rounded="0" inkscape:transform-center-x="1.057997" inkscape:transform-center-y="0.011675714" sodipodi:arg1="0.49394137" sodipodi:arg2="1.5411389" sodipodi:cx="132.24129" sodipodi:cy="153.36517" sodipodi:r1="4.272471" sodipodi:r2="2.1362357" sodipodi:sides="3" sodipodi:type="star" class="st3" d="
			M243.1,435.8l-0.1,10.5l-0.1,10.5l-9.1-5.3l-9.1-5.3l9.1-5.2L243.1,435.8z"/>
		
			<path id="path1216" inkscape:flatsided="false" inkscape:randomized="0" inkscape:rounded="0" inkscape:transform-center-x="0.0011963499" inkscape:transform-center-y="1.1208805" sodipodi:arg1="0.49394137" sodipodi:arg2="1.5411389" sodipodi:cx="120.95593" sodipodi:cy="159.73128" sodipodi:r1="4.272471" sodipodi:r2="2.1362357" sodipodi:sides="3" sodipodi:type="star" class="st3" d="
			M232.8,425.2l-9.8,0l-9.8,0l4.9,9.5l4.9,9.5l4.9-9.5L232.8,425.2z"/>
	</g>
	<path id="path1220" sodipodi:nodetypes="ccc" class="st1" d="M66.3,276.7l128.6,0.3l-0.6,70.9"/>
	<g id="g6151" transform="translate(-1.010066,4.7566)">
		<g id="g6129" transform="translate(-1.2674021,2.2715027)">
			<rect id="rect6102" x="102.7" y="275.2" class="st23" width="18.8" height="27.2"/>
			<g id="g6110" transform="matrix(0.72352925,0,0,0.70048858,23.483215,56.362901)">
				<ellipse id="circle6104" cx="122.5" cy="325.4" rx="9.2" ry="8.9"/>
				<path id="rect6106" d="M110.8,324h6.8c0.6,0,1,0.5,1,1v14c0,0.6-0.5,1-1,1h-6.8c-0.6,0-1-0.5-1-1v-14
					C109.8,324.4,110.2,324,110.8,324z"/>
				<path id="rect6108" d="M127.4,324.1h6.8c0.6,0,1,0.5,1,1v14c0,0.6-0.5,1-1,1h-6.8c-0.6,0-1-0.5-1-1v-14
					C126.3,324.5,126.8,324.1,127.4,324.1z"/>
			</g>
		</g>
		<path id="path6131" class="st21" d="M105,295.1l-0.1,3.5l-4.5-0.1"/>
		<path id="path6133" sodipodi:nodetypes="ccc" class="st21" d="M117.2,295.1v3.4l4.8,0.1"/>
		
			<path id="path6137" inkscape:flatsided="false" inkscape:randomized="0" inkscape:rounded="0" inkscape:transform-center-x="0.33732731" inkscape:transform-center-y="-0.0099044898" sodipodi:arg1="3.1165979" sodipodi:arg2="4.1637954" sodipodi:cx="34.777" sodipodi:cy="131.33464" sodipodi:r1="1.1605626" sodipodi:r2="0.56869543" sodipodi:sides="3" sodipodi:type="star" d="
			M95.9,298.7l2.9-0.9l2.9-1l0,1.8l0,1.8l-2.9-0.9L95.9,298.7z"/>
		
			<path id="path6139" inkscape:flatsided="false" inkscape:randomized="0" inkscape:rounded="0" inkscape:transform-center-x="0.33732731" inkscape:transform-center-y="-0.0099044898" sodipodi:arg1="3.1165979" sodipodi:arg2="4.1637954" sodipodi:cx="34.777" sodipodi:cy="131.33464" sodipodi:r1="1.1605626" sodipodi:r2="0.56869543" sodipodi:sides="3" sodipodi:type="star" d="
			M120,298.7l2.9-0.9l2.9-1l0,1.8l0,1.8l-2.9-0.9L120,298.7z"/>
	</g>
	<rect id="rect6153" x="143.8" y="256.4" class="st24" width="27.5" height="27.2"/>
	<g id="g6161" transform="matrix(0.72352925,0,0,0.70048858,37.832987,54.285697)">
		<ellipse id="circle6155" cx="164.7" cy="301.5" rx="9.2" ry="8.9"/>
		<path id="rect6157" d="M153,300.1h6.8c0.6,0,1,0.5,1,1v14c0,0.6-0.5,1-1,1H153c-0.6,0-1-0.5-1-1v-14
			C151.9,300.6,152.4,300.1,153,300.1z"/>
		<path id="rect6159" d="M169.5,300.2h6.8c0.6,0,1,0.5,1,1v14c0,0.6-0.5,1-1,1h-6.8c-0.6,0-1-0.5-1-1v-14
			C168.5,300.7,169,300.2,169.5,300.2z"/>
	</g>
	<path id="path6165" class="st25" d="M151.1,274l-0.1,3.5l-4.5-0.1"/>
	<path id="path6167" sodipodi:nodetypes="ccc" class="st21" d="M163.3,274.1v3.4l4.8,0.1"/>
	
		<path id="path6169" inkscape:flatsided="false" inkscape:randomized="0" inkscape:rounded="0" inkscape:transform-center-x="0.33732731" inkscape:transform-center-y="-0.0099044898" sodipodi:arg1="3.1165979" sodipodi:arg2="4.1637954" sodipodi:cx="34.777" sodipodi:cy="131.33464" sodipodi:r1="1.1605626" sodipodi:r2="0.56869543" sodipodi:sides="3" sodipodi:type="star" d="
		M142,277.7l2.9-0.9l2.9-1l0,1.8l0,1.8l-2.9-0.9L142,277.7z"/>
	
		<path id="path6171" inkscape:flatsided="false" inkscape:randomized="0" inkscape:rounded="0" inkscape:transform-center-x="0.33732731" inkscape:transform-center-y="-0.0099044898" sodipodi:arg1="3.1165979" sodipodi:arg2="4.1637954" sodipodi:cx="34.777" sodipodi:cy="131.33464" sodipodi:r1="1.1605626" sodipodi:r2="0.56869543" sodipodi:sides="3" sodipodi:type="star" d="
		M166.1,277.7l2.9-0.9l2.9-1l0,1.8l0,1.8l-2.9-0.9L166.1,277.7z"/>
	<path id="path6175" sodipodi:nodetypes="ccc" class="st26" d="M75,249.7l184.5,0.4l-0.8,103.2"/>
	<g id="g6197" transform="translate(32.497714,-13.924745)">
		<g id="g6187" transform="translate(-1.2674021,2.2715027)">
			<rect id="rect6177" x="164.1" y="240.9" class="st23" width="18.8" height="27.2"/>
			<g id="g6185" transform="matrix(0.72352925,0,0,0.70048858,23.483215,56.362901)">
				<ellipse id="circle6179" cx="207.5" cy="276.4" rx="9.2" ry="8.9"/>
				<path id="rect6181" d="M195.8,275h6.8c0.6,0,1,0.5,1,1v14c0,0.6-0.5,1-1,1h-6.8c-0.6,0-1-0.5-1-1v-14
					C194.7,275.5,195.2,275,195.8,275z"/>
				<path id="rect6183" d="M212.3,275.1h6.8c0.6,0,1,0.5,1,1v14c0,0.6-0.5,1-1,1h-6.8c-0.6,0-1-0.5-1-1v-14
					C211.3,275.6,211.8,275.1,212.3,275.1z"/>
			</g>
		</g>
		<path id="path6189" class="st21" d="M166.5,260.8l-0.1,3.5l-4.5-0.1"/>
		<path id="path6191" sodipodi:nodetypes="ccc" class="st21" d="M178.6,260.9v3.4l4.8,0.1"/>
		
			<path id="path6193" inkscape:flatsided="false" inkscape:randomized="0" inkscape:rounded="0" inkscape:transform-center-x="0.33732731" inkscape:transform-center-y="-0.0099044898" sodipodi:arg1="3.1165979" sodipodi:arg2="4.1637954" sodipodi:cx="34.777" sodipodi:cy="131.33464" sodipodi:r1="1.1605626" sodipodi:r2="0.56869543" sodipodi:sides="3" sodipodi:type="star" d="
			M157.4,264.5l2.9-0.9l2.9-1l0,1.8l0,1.8l-2.9-0.9L157.4,264.5z"/>
		
			<path id="path6195" inkscape:flatsided="false" inkscape:randomized="0" inkscape:rounded="0" inkscape:transform-center-x="0.33732731" inkscape:transform-center-y="-0.0099044898" sodipodi:arg1="3.1165979" sodipodi:arg2="4.1637954" sodipodi:cx="34.777" sodipodi:cy="131.33464" sodipodi:r1="1.1605626" sodipodi:r2="0.56869543" sodipodi:sides="3" sodipodi:type="star" d="
			M181.4,264.5l2.9-0.9l2.9-1l0,1.8l0,1.8l-2.9-0.9L181.4,264.5z"/>
	</g>
	<g id="g6245">
		<rect id="rect6199" x="60.4" y="315.6" class="st27" width="27.2" height="24.9"/>
		<g id="g6207" transform="matrix(0,0.72352925,-0.70048858,0,95.658983,127.64133)">
			<ellipse id="circle6201" cx="277.6" cy="24.4" rx="8.9" ry="9.2"/>
			<path id="rect6203" d="M265.9,23h6.8c0.6,0,1,0.5,1,1v14c0,0.6-0.5,1-1,1h-6.8c-0.6,0-1-0.5-1-1V24C264.9,23.5,265.3,23,265.9,23
				z"/>
			<path id="rect6205" d="M282.5,23.1h6.8c0.6,0,1,0.5,1,1v14c0,0.6-0.5,1-1,1h-6.8c-0.6,0-1-0.5-1-1v-14
				C281.4,23.6,281.9,23.1,282.5,23.1z"/>
		</g>
		<path id="path6211" class="st21" d="M70.1,322.6l-3.5-0.1l0.1-4.5"/>
		<path id="path6213" sodipodi:nodetypes="ccc" class="st21" d="M70,334.8h-3.4l-0.1,4.8"/>
		
			<path id="path6215" inkscape:flatsided="false" inkscape:randomized="0" inkscape:rounded="0" inkscape:transform-center-x="0.33732731" inkscape:transform-center-y="-0.0099044898" sodipodi:arg1="3.1165979" sodipodi:arg2="4.1637954" sodipodi:cx="34.777" sodipodi:cy="131.33464" sodipodi:r1="1.1605626" sodipodi:r2="0.56869543" sodipodi:sides="3" sodipodi:type="star" d="
			M66.4,313.5l0.9,2.9l1,2.9l-1.8,0l-1.8,0l0.9-2.9L66.4,313.5z"/>
		
			<path id="path6217" inkscape:flatsided="false" inkscape:randomized="0" inkscape:rounded="0" inkscape:transform-center-x="0.33732731" inkscape:transform-center-y="-0.0099044898" sodipodi:arg1="3.1165979" sodipodi:arg2="4.1637954" sodipodi:cx="34.777" sodipodi:cy="131.33464" sodipodi:r1="1.1605626" sodipodi:r2="0.56869543" sodipodi:sides="3" sodipodi:type="star" d="
			M66.4,337.6l0.9,2.9l1,2.9l-1.8,0l-1.8,0l0.9-2.9L66.4,337.6z"/>
	</g>
	<g id="g6282" transform="rotate(90,48.768757,204.92729)">
		<g id="g6272" transform="translate(-1.2674021,2.2715027)">
			
				<rect id="rect6262" x="303.8" y="-113.8" transform="matrix(2.535182e-06 1 -1 2.535182e-06 212.9857 -421.7572)" class="st23" width="27.2" height="18.8"/>
			<g id="g6270" transform="matrix(0.72352925,0,0,0.70048858,23.483215,56.362901)">
				<ellipse id="circle6264" cx="406.3" cy="-236" rx="8.9" ry="9.2"/>
				<path id="rect6266" d="M394.5-237.3h6.8c0.6,0,1,0.5,1,1v14c0,0.6-0.5,1-1,1h-6.8c-0.6,0-1-0.5-1-1v-14
					C393.5-236.9,394-237.3,394.5-237.3z"/>
				<path id="rect6268" d="M411.1-237.3h6.8c0.6,0,1,0.5,1,1v14c0,0.6-0.5,1-1,1h-6.8c-0.6,0-1-0.5-1-1v-14
					C410.1-236.8,410.5-237.3,411.1-237.3z"/>
			</g>
		</g>
		<path id="path6274" class="st21" d="M310.3-98.1l-0.1,3.5l-4.5-0.1"/>
		<path id="path6276" sodipodi:nodetypes="ccc" class="st21" d="M322.5-98.1v3.4l4.8,0.1"/>
		
			<path id="path6278" inkscape:flatsided="false" inkscape:randomized="0" inkscape:rounded="0" inkscape:transform-center-x="0.33732731" inkscape:transform-center-y="-0.0099044898" sodipodi:arg1="3.1165979" sodipodi:arg2="4.1637954" sodipodi:cx="34.777" sodipodi:cy="131.33464" sodipodi:r1="1.1605626" sodipodi:r2="0.56869543" sodipodi:sides="3" sodipodi:type="star" d="
			M301.2-94.4l2.9-0.9l2.9-1l0,1.8l0,1.8l-2.9-0.9L301.2-94.4z"/>
		
			<path id="path6280" inkscape:flatsided="false" inkscape:randomized="0" inkscape:rounded="0" inkscape:transform-center-x="0.33732731" inkscape:transform-center-y="-0.0099044898" sodipodi:arg1="3.1165979" sodipodi:arg2="4.1637954" sodipodi:cx="34.777" sodipodi:cy="131.33464" sodipodi:r1="1.1605626" sodipodi:r2="0.56869543" sodipodi:sides="3" sodipodi:type="star" d="
			M325.3-94.4l2.9-0.9l2.9-1l0,1.8l0,1.8l-2.9-0.9L325.3-94.4z"/>
	</g>
	<g id="g6289">
		
			<path id="path1064" inkscape:flatsided="false" inkscape:randomized="0" inkscape:rounded="0" inkscape:transform-center-x="0.014451257" inkscape:transform-center-y="-0.56363726" sodipodi:arg1="-1.5713197" sodipodi:arg2="-0.52412218" sodipodi:cx="144.83975" sodipodi:cy="197.63181" sodipodi:r1="4.2622118" sodipodi:r2="2.1070087" sodipodi:sides="3" sodipodi:type="star" class="st28" d="
			M360.9,493.2l1,5.2l1,5.1l-2,0l-2,0l1-5.2L360.9,493.2z"/>
		<path id="path1066" class="st29" d="M360.8,502l-0.1,15.5l0,0"/>
		<path id="path6284" class="st29" d="M360.8,502l-0.1,15.5l0,0"/>
	</g>
	<g id="g6297" transform="translate(-103.9515,-97.815648)">
		
			<path id="path6291" inkscape:flatsided="false" inkscape:randomized="0" inkscape:rounded="0" inkscape:transform-center-x="0.014451257" inkscape:transform-center-y="-0.56363726" sodipodi:arg1="-1.5713197" sodipodi:arg2="-0.52412218" sodipodi:cx="144.83975" sodipodi:cy="197.63181" sodipodi:r1="4.2622118" sodipodi:r2="2.1070087" sodipodi:sides="3" sodipodi:type="star" class="st28" d="
			M170.2,313.8l1,5.2l1,5.1l-2,0l-2,0l1-5.2L170.2,313.8z"/>
		<path id="path6293" class="st29" d="M170.1,322.6l-0.1,15.5l0,0"/>
		<path id="path6295" class="st29" d="M170.1,322.6l-0.1,15.5l0,0"/>
	</g>
	<text transform="matrix(1 0 0 1 74.4033 217.9564)" class="st11 st12">Loading</text>
	<text transform="matrix(1 0 0 1 74.4033 228.1566)" class="st11 st12">platform</text>
	<rect id="rect19317" x="385.3" y="228.9" class="st30" width="171.2" height="172.5"/>
	<text transform="matrix(1 0 0 1 377.4472 223.4202)" class="st11 st31">Symbol Key</text>
	<g id="g19345" transform="translate(103.72776,-8.7358016)">
		<g id="g19335" transform="translate(-1.2674021,2.2715027)">
			<rect id="rect19325" x="295.1" y="250" class="st23" width="18.2" height="28.1"/>
			<g id="g19333" transform="matrix(0.72352925,0,0,0.70048858,23.483215,56.362901)">
				<ellipse id="circle19327" cx="388.1" cy="290" rx="9.2" ry="8.9"/>
				<path id="rect19329" d="M376.4,288.6h6.8c0.6,0,1,0.5,1,1v14c0,0.6-0.5,1-1,1h-6.8c-0.6,0-1-0.5-1-1v-14
					C375.3,289.1,375.8,288.6,376.4,288.6z"/>
				<path id="rect19331" d="M392.9,288.7h6.8c0.6,0,1,0.5,1,1v14c0,0.6-0.5,1-1,1h-6.8c-0.6,0-1-0.5-1-1v-14
					C391.9,289.2,392.4,288.7,392.9,288.7z"/>
			</g>
		</g>
		<path id="path19337" class="st21" d="M297.2,270.3l-0.1,3.5l-4.5-0.1"/>
		<path id="path19339" sodipodi:nodetypes="ccc" class="st21" d="M309.3,270.4v3.4l4.8,0.1"/>
		
			<path id="path19341" inkscape:flatsided="false" inkscape:randomized="0" inkscape:rounded="0" inkscape:transform-center-x="0.33732731" inkscape:transform-center-y="-0.0099044898" sodipodi:arg1="3.1165979" sodipodi:arg2="4.1637954" sodipodi:cx="34.777" sodipodi:cy="131.33464" sodipodi:r1="1.1605626" sodipodi:r2="0.56869543" sodipodi:sides="3" sodipodi:type="star" d="
			M288,274l2.9-0.9l2.9-1l0,1.8l0,1.8l-2.9-0.9L288,274z"/>
		
			<path id="path19343" inkscape:flatsided="false" inkscape:randomized="0" inkscape:rounded="0" inkscape:transform-center-x="0.33732731" inkscape:transform-center-y="-0.0099044898" sodipodi:arg1="3.1165979" sodipodi:arg2="4.1637954" sodipodi:cx="34.777" sodipodi:cy="131.33464" sodipodi:r1="1.1605626" sodipodi:r2="0.56869543" sodipodi:sides="3" sodipodi:type="star" d="
			M312.1,274l2.9-0.9l2.9-1l0,1.8l0,1.8l-2.9-0.9L312.1,274z"/>
	</g>
	<g id="g19361" transform="translate(84.2024,-28.303328)">
		<rect id="rect19347" x="313.5" y="321.7" class="st16" width="16.1" height="10.8"/>
		<g id="g19359">
			<path id="path19349" class="st17" d="M329.6,318.1l0,17.1l0,0"/>
			<ellipse id="ellipse19351" class="st18" cx="329.1" cy="319.2" rx="1.2" ry="1.2"/>
			<path id="path19353" class="st19" d="M328.4,320.2L315,332.3l0,0"/>
			
				<path id="path19355" inkscape:flatsided="false" inkscape:randomized="0" inkscape:rounded="0" inkscape:transform-center-x="0.064245797" inkscape:transform-center-y="-0.087532023" sodipodi:arg1="2.8387078" sodipodi:arg2="3.8859053" sodipodi:cx="50.602779" sodipodi:cy="137.00771" sodipodi:r1="0.58691031" sodipodi:r2="0.29013675" sodipodi:sides="3" sodipodi:type="star" class="st20" d="
				M317.8,331.7l-1-1.1l-1-1.1l-0.4,1.4l-0.4,1.4l1.4-0.3L317.8,331.7z"/>
			<path id="path19357" class="st21" d="M313.5,318.1l0,17.1l0,0"/>
		</g>
	</g>
	<g id="g19371" transform="matrix(-0.452006,0,0,0.47298317,198.08651,74.408435)">
		
			<path id="path19363" inkscape:flatsided="false" inkscape:randomized="0" inkscape:rounded="0" inkscape:transform-center-x="0.0012855256" inkscape:transform-center-y="-1.0670075" sodipodi:arg1="0.49394137" sodipodi:arg2="1.5411389" sodipodi:cx="120.95593" sodipodi:cy="159.73128" sodipodi:r1="4.272471" sodipodi:r2="2.1362357" sodipodi:sides="3" sodipodi:type="star" class="st3" d="
			M-453,574.1l-10.5,0l-10.5,0l5.2-9.1l5.2-9.1l5.2,9.1L-453,574.1z"/>
		<ellipse id="circle19365" class="st4" cx="-463.1" cy="553.5" rx="3.7" ry="3.8"/>
		
			<path id="path19367" inkscape:flatsided="false" inkscape:randomized="0" inkscape:rounded="0" inkscape:transform-center-x="1.057997" inkscape:transform-center-y="0.011675714" sodipodi:arg1="0.49394137" sodipodi:arg2="1.5411389" sodipodi:cx="132.24129" sodipodi:cy="153.36517" sodipodi:r1="4.272471" sodipodi:r2="2.1362357" sodipodi:sides="3" sodipodi:type="star" class="st3" d="
			M-443.3,543.6l-0.1,10.5l-0.1,10.5l-9.1-5.3l-9.1-5.3l9.1-5.2L-443.3,543.6z"/>
		
			<path id="path19369" inkscape:flatsided="false" inkscape:randomized="0" inkscape:rounded="0" inkscape:transform-center-x="0.0011963499" inkscape:transform-center-y="1.1208805" sodipodi:arg1="0.49394137" sodipodi:arg2="1.5411389" sodipodi:cx="120.95593" sodipodi:cy="159.73128" sodipodi:r1="4.272471" sodipodi:r2="2.1362357" sodipodi:sides="3" sodipodi:type="star" class="st3" d="
			M-453.7,533l-9.8,0l-9.8,0l4.9,9.5l4.9,9.5l4.9-9.5L-453.7,533z"/>
	</g>
	<g id="g19381" transform="matrix(0.14891127,0,0,0.15182748,136.04286,154.5917)">
		<g id="g19375">
			<path id="path19373" d="M1825.6,1576L1825.6,1576l-1.1,0l-1,0c-9.6,0-57.9-1-72.2-21.3c-1.3-1.5-5.1-7.9,0.5-25.7
				c2.6-8.3,11.1-30.2,20-53.4c10.3-26.7,21.9-56.8,24.1-64.9v-32.1c-0.2-1-1.2-4.4-2.8-6.7c-0.9-1.3-2.9-4.1-1.6-6.5
				c0.7-1.4,2.2-2.2,4.3-2.2h58.3c2.1,0,3.6,0.7,4.3,2.2c1.3,2.4-0.7,5.2-1.6,6.5c-1.6,2.3-2.5,5.7-2.8,6.7v32.1
				c2.1,8.1,13.8,38.3,24.1,65c8.9,23.2,17.4,45.1,20,53.3c5.6,17.8,1.8,24.2,0.5,25.7C1884.1,1575,1835.2,1576,1825.6,1576z
				 M1824.4,1570.3l1.1,0l0,0c5.6,0,55.5-0.5,68.3-19l0.3-0.4h0c0,0,3.3-4.6-1.6-20.2c-2.6-8.1-11-29.9-19.9-53
				c-11-28.5-22.4-58-24.4-66l-0.1-0.7l0.1-33.4c0-0.2,1.2-5.1,3.6-8.7h-54.1c2.4,3.6,3.5,8.5,3.6,8.7l0.1,0.6l-0.1,33.5
				c-2,7.9-13.4,37.4-24.3,65.9c-8.9,23.1-17.3,44.9-19.9,53.1c-5,15.7-1.6,20.3-1.5,20.4l0.2,0.3c12.9,18.5,62.1,19,67.7,19
				L1824.4,1570.3z"/>
		</g>
		<g id="g19379">
			<path id="path19377" d="M1866,1480.7c-3.9-0.5-8.1-1.1-12.7-1.9c-24.4-4.2-15.2,0-28.5,6.3s-15.8,5.1-34.8-2.5
				c-2.1-0.8-4.2-1.5-6.3-2c-8.4,21.9-17.2,44.5-19.6,52.3c-2.9,9.2-2.4,13.4-2.2,14.4c5.5,7.6,27,15.7,61.6,15.7c0.6,0,0.9,0,0.9,0
				c0,0,1.3,0,1.3,0c35,0,56.7-8.1,62.2-15.7c0.2-1,0.7-5.2-2.2-14.4C1883.1,1525.1,1874.4,1502.5,1866,1480.7z"/>
		</g>
	</g>
	<text transform="matrix(1 0 0 1 432.2695 261.7093)" class="st11 st32">Peristaltic pump</text>
	<text transform="matrix(1 0 0 1 432.2695 303.7093)" class="st11 st32">Check valve</text>
	<text transform="matrix(1 0 0 1 432.2695 342.7093)" class="st11 st32">Three-way valve</text>
	<text transform="matrix(1 0 0 1 432.2695 383.2093)" class="st11 st32">Culture flask</text>
	<text transform="matrix(1 0 0 1 36.0469 570.1214)" class="st11 st31">Figure xx. System for loading bacteria culture from refrigerator </text>
	<text transform="matrix(1 0 0 1 36.0469 590.1214)" class="st11 st31">onto robot deck. Air is pumped in to flush bacteria through flow </text>
	<text transform="matrix(1 0 0 1 36.0469 610.1214)" class="st11 st31">lines.</text>
</g>
</svg>
